<?xml version="1.0" encoding="iso-8859-1"?>
<!-- Generator: Adobe Illustrator 19.0.0, SVG Export Plug-In . SVG Version: 6.00 Build 0)  -->
<svg version="1.1" id="Layer_1" xmlns="http://www.w3.org/2000/svg" xmlns:xlink="http://www.w3.org/1999/xlink" x="0px" y="0px"
	 viewBox="0 0 512.001 512.001" style="enable-background:new 0 0 512.001 512.001;" xml:space="preserve">
<path style="fill:#DCB478;" d="M272.93,197.331c-0.721-6.134-5.914-10.754-12.091-10.754h-4.838h-4.838
	c-6.177,0-11.37,4.62-12.091,10.754c-2.394,20.365-7.692,58.537,5.701,90.22c4.198,9.93,18.259,9.93,22.457,0
	C280.622,255.868,275.324,217.696,272.93,197.331z"/>
<g>
	<path style="fill:#D2A564;" d="M256.001,269.214c-6.504,0-12.825-0.965-18.931-2.671c0.636,7.762,1.569,15.563,2.968,23.253
		c5.218,1.044,10.521,1.747,15.963,1.747c5.442,0,10.745-0.703,15.963-1.747c1.399-7.69,2.332-15.491,2.968-23.253
		C268.826,268.249,262.504,269.214,256.001,269.214z"/>
	<path style="fill:#D2A564;" d="M275.515,231.001c-6.087,2.453-12.644,3.861-19.514,3.861s-13.427-1.408-19.514-3.861
		c-0.329,6.62-0.501,13.586-0.429,20.789c6.342,2.051,13.019,3.211,19.943,3.211s13.602-1.16,19.943-3.211
		C276.016,244.587,275.844,237.621,275.515,231.001z"/>
	<path style="fill:#D2A564;" d="M275.515,198.001c-6.087,2.453-12.644,3.861-19.514,3.861s-13.427-1.408-19.514-3.861
		c-0.329,6.62-0.501,13.586-0.429,20.789c6.342,2.051,13.019,3.211,19.943,3.211s13.602-1.16,19.943-3.211
		C276.016,211.587,275.844,204.621,275.515,198.001z"/>
	<circle style="fill:#D2A564;" cx="256" cy="167" r="16"/>
</g>
<g>
	<path style="fill:#ADA9A7;" d="M240.001,182.999c-12.667,0-99.332-24-119.999-24s-32.667,7.334-24,16
		c8.667,8.667,62.667,24,87.999,24s56-8,56-8"/>
	<path style="fill:#ADA9A7;" d="M272,182.999c12.667,0,99.332-24,119.999-24s32.667,7.334,24,16c-8.667,8.667-62.667,24-87.999,24
		s-56-8-56-8"/>
</g>
<path d="M363.176,305.764c-2.241-3.08-5.565-8.84-7.114-12.323l-25.502-57.379c-2.285-5.14-7.265-11.729-11.584-15.328
	l-17.852-14.877c8.599,1.225,18.004,2.144,26.876,2.144c24.974,0,82.287-14.973,93.656-26.344
	c6.962-6.963,5.249-13.665,4.189-16.224c-3.536-8.537-15.873-13.433-33.846-13.433c-12.513,0-43.862,7.315-74.18,14.391
	c-13.66,3.188-28.603,6.674-37.82,8.441v-6.832c0-1.13-0.084-2.24-0.236-3.328l29.492-17.695
	c6.226-3.735,10.744-11.716,10.744-18.977v-32c0-2.973,1.446-8.195,2.976-10.744l43.884-73.14c2.273-3.789,1.045-8.703-2.744-10.977
	c-3.791-2.271-8.703-1.045-10.976,2.744l-43.885,73.141C306.259,82.02,304,90.178,304,96.001v32c0,1.59-1.613,4.438-2.976,5.256
	l-28.67,17.201c-2.385-2.225-5.22-3.969-8.354-5.081V80.002c0-4.418-3.582-8-8-8s-8,3.582-8,8v65.376
	c-3.134,1.112-5.97,2.856-8.354,5.081l-28.67-17.201c-1.363-0.817-2.976-3.666-2.976-5.256v-32c0-5.823-2.259-13.981-5.256-18.977
	l-43.884-73.14c-2.273-3.788-7.187-5.017-10.976-2.744c-3.789,2.273-5.017,7.188-2.744,10.977l43.884,73.139
	c1.53,2.55,2.976,7.772,2.976,10.745v32c0,7.261,4.519,15.241,10.744,18.977l29.492,17.695c-0.152,1.088-0.236,2.198-0.236,3.328
	v6.832c-9.217-1.768-24.16-5.254-37.82-8.441c-30.318-7.075-61.667-14.391-74.18-14.391c-17.974,0-30.311,4.896-33.846,13.433
	c-1.06,2.559-2.773,9.261,4.189,16.224c11.371,11.371,68.683,26.344,93.656,26.344c8.872,0,18.277-0.919,26.876-2.144
	l-17.851,14.876c-4.319,3.6-9.3,10.189-11.584,15.329l-25.502,57.379c-1.548,3.483-4.873,9.243-7.114,12.324l-59.294,81.53
	c-2.599,3.573-1.809,8.576,1.764,11.175c1.421,1.033,3.067,1.531,4.699,1.531c2.472,0,4.911-1.143,6.476-3.296l59.294-81.529
	c2.917-4.01,6.78-10.703,8.795-15.237l25.502-57.379c1.281-2.883,4.783-7.517,7.206-9.535l18.376-15.313l-16.389,27.313
	c-2.996,4.994-5.255,13.152-5.255,18.976v64c0,3.327-1.194,9.144-2.504,12.202l-68.848,160.645
	c-1.741,4.061,0.141,8.764,4.202,10.505c1.028,0.44,2.096,0.648,3.147,0.648c3.104,0,6.057-1.817,7.357-4.851l68.849-160.645
	c2.166-5.053,3.798-13.008,3.798-18.505v-64c0-2.973,1.446-8.195,2.976-10.744l13.024-21.707V280c0,13.233,10.766,24,24,24
	c13.234,0,24-10.767,24-24V231.55l13.024,21.706c1.53,2.55,2.976,7.772,2.976,10.745v64c0,5.497,1.633,13.452,3.798,18.505
	l68.849,160.645c1.3,3.033,4.253,4.851,7.357,4.851c1.051,0,2.12-0.208,3.147-0.648c4.061-1.741,5.942-6.444,4.202-10.505
	l-68.849-160.645c-1.311-3.059-2.504-8.875-2.504-12.202v-64c0-5.823-2.259-13.981-5.256-18.977l-16.388-27.313l18.376,15.314
	c2.422,2.018,5.924,6.651,7.206,9.534l25.502,57.379c2.016,4.534,5.879,11.228,8.795,15.236l59.294,81.53
	c1.565,2.153,4.003,3.296,6.476,3.296c1.632,0,3.279-0.498,4.699-1.531c3.573-2.599,4.363-7.602,1.764-11.175L363.176,305.764z
	 M321.457,181.973c26.675-6.225,59.874-13.972,70.544-13.972c9.677,0,15.147,1.679,17.66,2.906
	c-3.208,2.314-14.113,7.251-33.545,12.634c-18.838,5.219-37.275,8.46-48.115,8.46c-11.504,0-24.329-1.765-34.59-3.608
	C300.895,186.759,310.198,184.601,321.457,181.973z M256.001,160.001c4.411,0,8,3.589,8,8c0,4.411-3.589,8-8,8s-8-3.589-8-8
	C248.001,163.59,251.59,160.001,256.001,160.001z M135.887,183.541c-19.433-5.383-30.337-10.319-33.545-12.634
	c2.513-1.228,7.983-2.906,17.66-2.906c10.67,0,43.869,7.747,70.544,13.972c11.264,2.629,20.569,4.788,28.056,6.422
	c-10.254,1.844-23.073,3.606-34.6,3.606C173.162,192.001,154.725,188.76,135.887,183.541z M264,280c0,4.411-3.589,8-8,8
	s-8-3.589-8-8v-89.375c2.504,0.888,5.195,1.376,8,1.376c2.805,0,5.496-0.488,8-1.376V280z"/>
<g>
</g>
<g>
</g>
<g>
</g>
<g>
</g>
<g>
</g>
<g>
</g>
<g>
</g>
<g>
</g>
<g>
</g>
<g>
</g>
<g>
</g>
<g>
</g>
<g>
</g>
<g>
</g>
<g>
</g>
</svg>
